<?xml version="1.0" standalone="no"?>
<!DOCTYPE svg PUBLIC "-//W3C//DTD SVG 20010904//EN"
 "http://www.w3.org/TR/2001/REC-SVG-20010904/DTD/svg10.dtd">
<svg version="1.0" xmlns="http://www.w3.org/2000/svg"
 width="600.000000pt" height="480.000000pt" viewBox="0 0 600.000000 480.000000"
 preserveAspectRatio="xMidYMid meet">

<g transform="translate(0.000000,480.000000) scale(0.100000,-0.100000)"
fill="#000000" stroke="none">
<path d="M3197 3750 c-22 -18 -40 -20 -149 -20 -196 0 -295 -35 -393 -142 -84
-91 -98 -137 -103 -348 -4 -152 -6 -178 -23 -199 -21 -26 -25 -90 -9 -122 14
-25 62 -49 97 -49 35 0 93 34 93 55 0 13 19 15 115 15 128 0 164 10 206 56 35
38 49 84 50 158 0 55 3 63 28 83 l29 23 54 -19 c141 -49 256 -138 300 -234 22
-49 23 -66 26 -286 3 -222 2 -234 -17 -255 -49 -52 -48 -110 1 -151 61 -52
144 -19 155 61 4 33 1 45 -20 70 l-26 30 -3 255 c-3 254 -3 254 -31 313 -35
76 -83 135 -149 182 -79 56 -79 56 -13 49 114 -13 188 -65 242 -168 26 -49 28
-61 31 -209 2 -93 0 -158 -6 -158 -11 0 -32 -45 -32 -71 0 -38 29 -77 64 -89
61 -20 126 27 126 90 0 24 -21 70 -32 70 -4 0 -8 53 -8 118 0 64 -7 147 -15
185 -29 136 -116 251 -233 305 -54 25 -67 27 -236 30 -164 4 -182 6 -208 25
-38 28 -99 29 -129 2 -56 -51 -56 -135 1 -175 28 -20 30 -26 30 -81 0 -69 -18
-110 -55 -127 -15 -7 -70 -12 -129 -12 l-102 0 -23 31 c-29 39 -24 71 29 178
29 57 57 95 103 138 93 87 119 93 394 93 l225 0 30 -25 c44 -37 98 -35 132 6
36 43 35 91 -3 130 -38 38 -87 39 -129 4 l-30 -25 -241 0 c-214 0 -248 -2
-297 -20 -75 -26 -151 -85 -209 -162 l-48 -63 5 60 c5 74 27 121 81 174 76 76
158 101 332 101 88 0 104 -3 119 -19 40 -45 124 -33 151 20 23 43 18 77 -14
110 -36 36 -95 40 -134 9z"/>
<path d="M2404 3570 c-30 -12 -64 -58 -64 -87 0 -28 26 -83 40 -83 5 0 10
-113 12 -262 3 -261 3 -263 30 -320 31 -67 102 -147 173 -194 l50 -34 -46 0
c-106 0 -206 66 -256 168 -26 53 -28 67 -31 204 -4 137 -2 149 17 174 49 62 4
154 -74 154 -76 0 -123 -92 -76 -151 15 -20 19 -48 24 -169 3 -91 11 -164 21
-196 37 -118 134 -222 246 -265 42 -16 78 -19 218 -19 164 0 169 -1 202 -25
117 -87 238 70 129 168 -30 28 -31 31 -27 99 3 62 7 73 31 94 26 22 36 24 143
24 112 0 116 -1 138 -27 22 -25 22 -29 10 -71 -41 -136 -128 -253 -226 -301
l-61 -31 -238 0 -238 0 -38 26 c-29 20 -46 24 -73 20 -102 -16 -108 -166 -7
-191 27 -7 97 18 97 34 0 8 77 11 233 11 258 0 317 9 397 60 52 34 117 98 154
154 l26 39 0 -54 c-1 -87 -51 -174 -130 -224 -65 -41 -133 -55 -267 -55 -110
0 -126 2 -145 20 -34 31 -93 27 -129 -9 -32 -33 -37 -67 -14 -110 27 -53 111
-65 151 -20 15 17 31 19 154 19 167 0 238 18 327 83 63 47 99 93 135 172 20
44 23 70 26 230 4 157 7 183 23 204 29 37 25 94 -10 133 -25 28 -36 33 -76 33
-42 0 -51 -4 -80 -37 l-32 -38 -120 0 c-108 0 -123 -2 -154 -23 -51 -33 -79
-97 -79 -177 0 -63 -2 -68 -31 -89 -29 -21 -35 -22 -73 -11 -127 37 -266 144
-309 237 -20 44 -22 66 -25 287 l-4 238 25 27 c34 36 40 64 23 106 -11 25 -26
40 -50 50 -40 17 -43 17 -72 5z"/>
<path d="M1635 1846 c-3 -9 -7 -23 -10 -31 -2 -8 0 -17 5 -20 6 -4 10 -64 10
-136 l0 -129 40 0 40 0 1 63 1 62 19 -63 20 -63 42 3 41 3 16 60 15 60 3 -62
3 -63 39 0 40 0 0 165 0 165 -45 0 -45 0 -32 -105 c-18 -58 -35 -102 -39 -97
-4 4 -20 50 -37 102 l-29 95 -47 3 c-35 2 -47 -1 -51 -12z"/>
<path d="M2088 1848 c-2 -7 -2 -82 0 -165 l4 -153 104 0 104 0 0 30 0 30 -65
0 -65 0 0 35 c0 34 1 35 40 35 38 0 40 2 40 30 0 28 -2 30 -41 30 l-40 0 3 38
c3 37 3 37 52 39 54 3 63 8 68 38 3 19 -3 20 -98 23 -76 2 -103 -1 -106 -10z"/>
<path d="M2420 1835 c-13 -33 -13 -45 0 -45 6 0 10 -50 10 -130 l0 -130 40 0
40 0 0 83 0 82 43 -80 c42 -79 44 -80 85 -83 l42 -3 0 165 0 166 -40 0 -40 0
0 -87 0 -88 -48 85 c-45 81 -49 85 -85 88 -32 3 -38 0 -47 -23z"/>
<path d="M2802 1831 c-13 -36 -8 -41 35 -41 l33 0 0 -130 0 -130 40 0 40 0 0
130 0 130 35 0 c29 0 37 5 45 26 6 14 10 30 10 35 0 5 -50 9 -114 9 l-114 0
-10 -29z"/>
<path d="M3200 1842 c-92 -50 -101 -223 -14 -291 106 -83 250 21 230 167 -16
115 -120 175 -216 124z m114 -74 c10 -14 16 -44 16 -78 0 -64 -20 -100 -55
-100 -28 0 -53 22 -61 56 -9 34 1 111 16 129 19 23 66 19 84 -7z"/>
<path d="M3540 1836 c-13 -34 -13 -46 0 -46 6 0 10 -50 10 -130 l0 -130 40 0
40 0 0 45 c0 25 4 45 9 45 5 0 22 -20 38 -45 26 -42 31 -45 71 -45 l43 0 -31
44 c-16 25 -30 47 -30 51 0 3 12 16 26 28 31 27 42 92 24 137 -18 42 -56 60
-150 67 l-79 6 -11 -27z m158 -89 c4 -45 -11 -67 -44 -67 -22 0 -24 4 -24 56
l0 55 33 -3 c29 -3 32 -6 35 -41z"/>
<path d="M3990 1840 c-6 -11 -9 -29 -6 -38 3 -10 -12 -71 -34 -136 -22 -65
-40 -122 -40 -127 0 -5 18 -9 39 -9 33 0 40 4 45 25 6 23 11 25 61 25 50 0 55
-2 61 -25 5 -21 12 -25 45 -25 25 0 39 5 38 13 0 6 -24 80 -52 162 l-52 150
-47 3 c-39 3 -49 0 -58 -18z m90 -181 c0 -13 -7 -19 -23 -19 -35 0 -37 7 -20
57 l16 46 13 -33 c8 -18 14 -41 14 -51z"/>
</g>
</svg>
